<?xml version="1.0" encoding="utf-8"?>
<!-- Generator: Adobe Illustrator 24.1.0, SVG Export Plug-In . SVG Version: 6.00 Build 0)  -->
<svg version="1.1" id="Layer_1" xmlns="http://www.w3.org/2000/svg" xmlns:xlink="http://www.w3.org/1999/xlink" x="0px" y="0px"
	 viewBox="0 0 300 150" style="enable-background:new 0 0 300 150;" xml:space="preserve">
<g>
	<path d="M4.2,62.1h14.3v5.8c2.1-2.4,4.1-4.2,6.2-5.2c2.1-1,4.6-1.5,7.6-1.5c3.2,0,5.7,0.6,7.6,1.7c1.9,1.1,3.4,2.8,4.5,5
		c2.4-2.6,4.6-4.4,6.6-5.3c2-0.9,4.4-1.4,7.3-1.4c4.3,0,7.6,1.3,10,3.8c2.4,2.5,3.6,6.5,3.6,11.9v25H56.5V79.2c0-1.8-0.3-3.1-1-4
		c-1-1.4-2.3-2.1-3.8-2.1c-1.8,0-3.2,0.7-4.3,2c-1.1,1.3-1.6,3.4-1.6,6.3v20.6H30.4V80c0-1.8-0.1-2.9-0.3-3.6
		c-0.3-1-0.9-1.8-1.7-2.4c-0.8-0.6-1.7-0.9-2.8-0.9c-1.8,0-3.2,0.7-4.3,2c-1.1,1.3-1.7,3.5-1.7,6.5v20.3H4.2V62.1z"/>
	<path d="M78,75.9h22.2v11.8H78V75.9z"/>
	<path d="M106.6,46.9H122V66c1.5-1.6,3.3-2.8,5.2-3.6c1.9-0.8,4.1-1.2,6.4-1.2c4.9,0,8.9,1.7,12,5.2c3.2,3.5,4.8,8.5,4.8,15
		c0,4.4-0.7,8.2-2.2,11.5c-1.5,3.3-3.5,5.8-6,7.4c-2.6,1.6-5.4,2.5-8.5,2.5c-2.7,0-5.1-0.6-7.4-1.7c-1.7-0.9-3.5-2.6-5.5-5.1v5.9
		h-14.3V46.9z M121.9,81.9c0,3.4,0.6,5.9,1.9,7.4c1.3,1.5,2.9,2.3,4.9,2.3c1.8,0,3.4-0.8,4.6-2.3c1.2-1.5,1.9-4.1,1.9-7.6
		c0-3.2-0.6-5.5-1.8-6.9c-1.2-1.5-2.7-2.2-4.4-2.2c-2.1,0-3.8,0.8-5.1,2.3C122.6,76.4,121.9,78.7,121.9,81.9z"/>
	<path d="M154.8,75.9H177v11.8h-22.2V75.9z"/>
	<path d="M180.6,90.8l15.2-1.4c0.6,1.8,1.5,3.1,2.6,3.9c1.1,0.8,2.6,1.2,4.5,1.2c2.1,0,3.6-0.4,4.8-1.3c0.9-0.6,1.3-1.5,1.3-2.4
		c0-1.1-0.6-1.9-1.7-2.5c-0.8-0.4-3-0.9-6.6-1.6c-5.3-0.9-9-1.8-11-2.6c-2.1-0.8-3.8-2.1-5.2-4c-1.4-1.9-2.1-4-2.1-6.4
		c0-2.6,0.8-4.9,2.3-6.8c1.5-1.9,3.6-3.3,6.3-4.3c2.7-0.9,6.3-1.4,10.8-1.4c4.8,0,8.3,0.4,10.5,1.1c2.3,0.7,4.2,1.9,5.7,3.4
		c1.5,1.5,2.8,3.6,3.8,6.2l-14.5,1.4c-0.4-1.3-1-2.2-1.9-2.8c-1.2-0.8-2.7-1.2-4.4-1.2c-1.7,0-3,0.3-3.8,0.9
		c-0.8,0.6-1.2,1.4-1.2,2.2c0,1,0.5,1.7,1.5,2.2c1,0.5,3.2,0.9,6.5,1.3c5.1,0.6,8.9,1.4,11.3,2.4c2.5,1,4.4,2.5,5.7,4.4s2,4,2,6.3
		c0,2.3-0.7,4.5-2.1,6.7s-3.6,3.9-6.6,5.2c-3,1.3-7.1,1.9-12.2,1.9c-7.3,0-12.5-1-15.6-3.1C183.5,97.6,181.5,94.7,180.6,90.8z"/>
	<path d="M227.4,75.9h22.2v11.8h-22.2V75.9z"/>
	<path d="M255.9,46.9h15.3v20.3c2.1-2.2,4.1-3.7,6.2-4.6c2.1-0.9,4.5-1.4,7.3-1.4c4.2,0,7.4,1.3,9.8,3.8c2.4,2.5,3.6,6.4,3.6,11.6
		v25.3h-15.3V80c0-2.5-0.5-4.3-1.4-5.3c-0.9-1-2.2-1.6-3.9-1.6c-1.9,0-3.4,0.7-4.5,2.1c-1.2,1.4-1.7,3.9-1.7,7.5v19.1h-15.3V46.9z"
		/>
</g>
</svg>
